<?xml version="1.0" encoding="UTF-8"?>
<svg xmlns="http://www.w3.org/2000/svg" viewBox="0 0 335.21 49.3">
  <defs>
    <style>
      .cls-1 {
        fill-rule: evenodd;
      }

      .cls-1, .cls-2 {
        fill: #c41230;
      }
    </style>
  </defs>
  <g id="Foreground">
    <g>
      <path class="cls-2" d="m43.61,48.67c-.42.42-.93.63-1.52.63s-1.1-.21-1.52-.63c-.42-.42-.62-.93-.62-1.53s.21-1.1.63-1.52c.42-.42.92-.63,1.51-.63s1.1.21,1.52.63c.42.42.63.92.63,1.52s-.21,1.1-.63,1.53Zm-2.83-2.83c-.36.36-.54.8-.54,1.31s.18.96.54,1.32c.36.36.8.54,1.31.54s.95-.18,1.31-.54.54-.8.54-1.32-.18-.95-.54-1.31c-.36-.36-.8-.55-1.31-.55s-.95.18-1.31.55Zm1.27.12c.29,0,.51.03.64.09.24.1.37.3.37.6,0,.21-.08.37-.23.47-.08.05-.2.09-.34.11.18.03.32.11.4.23.09.12.13.25.13.37v.17c0,.05,0,.11,0,.18s.01.1.02.12v.03s-.38,0-.38,0c0,0,0-.02,0-.02,0,0,0-.02,0-.03v-.08s0-.19,0-.19c0-.27-.07-.45-.22-.54-.09-.05-.24-.08-.46-.08h-.33v.93h-.42v-2.36h.83Zm.45.37c-.11-.06-.27-.09-.5-.09h-.36v.86h.38c.18,0,.31-.02.4-.05.16-.06.24-.19.24-.37,0-.17-.05-.29-.16-.35Z"/>
      <polygon class="cls-1" points="0 6.02 0 18.88 4.29 18.88 4.29 40.26 12.86 48.77 34.18 48.77 42.75 40.26 42.75 18.88 47.04 18.88 47.04 6.02 25.66 6.02 25.66 18.88 29.95 18.88 29.95 35.92 17.09 35.92 17.09 18.88 21.37 18.88 21.37 6.02 0 6.02"/>
    </g>
    <g>
      <path d="m58.14,42.05c0,.96,0,1.75.05,2.17.03.29.09.51.39.55.14.02.36.04.45.04.06,0,.08.03.08.06,0,.05-.05.08-.16.08-.55,0-1.18-.03-1.23-.03s-.68.03-.98.03c-.11,0-.16-.02-.16-.08,0-.03.02-.06.08-.06.09,0,.21-.02.3-.04.2-.04.25-.26.29-.55.05-.42.05-1.21.05-2.17v-4.23l-1.48.02c-.62,0-.86.08-1.02.32-.11.17-.14.24-.17.31-.03.08-.06.1-.1.1-.03,0-.05-.03-.05-.09,0-.1.2-.96.22-1.04.02-.06.06-.19.1-.19.07,0,.17.1.44.12.29.03.67.05.79.05h3.75c.32,0,.55-.02.71-.05.15-.02.24-.05.28-.05.05,0,.05.06.05.12,0,.3-.03.99-.03,1.1,0,.09-.03.13-.07.13-.05,0-.07-.03-.08-.17v-.11c-.04-.3-.28-.53-1.24-.55l-1.26-.02v4.23Z"/>
      <path d="m68.67,42.05c0,.96,0,1.75.05,2.17.03.29.09.51.39.55.14.02.36.04.45.04.06,0,.08.03.08.06,0,.05-.05.08-.16.08-.55,0-1.18-.03-1.23-.03s-.68.03-.98.03c-.11,0-.16-.02-.16-.08,0-.03.02-.06.08-.06.09,0,.21-.02.3-.04.2-.04.25-.26.29-.55.05-.42.05-1.21.05-2.17v-1.05s-.03-.06-.06-.06h-4.24s-.06,0-.06.06v1.05c0,.96,0,1.75.05,2.17.03.29.09.51.39.55.14.02.36.04.45.04.06,0,.08.03.08.06,0,.05-.05.08-.16.08-.55,0-1.18-.03-1.23-.03s-.68.03-.98.03c-.11,0-.16-.02-.16-.08,0-.03.02-.06.08-.06.09,0,.21-.02.3-.04.2-.04.25-.26.29-.55.05-.42.05-1.21.05-2.17v-1.76c0-1.56,0-1.84-.02-2.16-.02-.34-.1-.5-.43-.57-.08-.02-.25-.03-.34-.03-.04,0-.08-.02-.08-.06,0-.06.05-.08.16-.08.45,0,1.08.03,1.13.03s.68-.03.98-.03c.11,0,.16.02.16.08,0,.04-.04.06-.08.06-.07,0-.13.01-.25.03-.27.05-.35.22-.37.57-.02.32-.02.6-.02,2.16v.21s.03.06.06.06h4.24s.06,0,.06-.06v-.21c0-1.56,0-1.84-.02-2.16-.02-.34-.1-.5-.43-.57-.08-.02-.25-.03-.34-.03-.04,0-.08-.02-.08-.06,0-.06.05-.08.16-.08.45,0,1.08.03,1.13.03s.68-.03.98-.03c.11,0,.16.02.16.08,0,.04-.04.06-.08.06-.07,0-.13.01-.25.03-.27.05-.35.22-.37.57-.02.32-.02.6-.02,2.16v1.76Z"/>
      <path d="m71.65,40.29c0-1.56,0-1.84-.02-2.16-.02-.34-.1-.5-.43-.57-.08-.02-.25-.03-.34-.03-.04,0-.08-.02-.08-.06,0-.06.05-.08.16-.08.23,0,.5,0,.72,0l.41.02c.07,0,2.06,0,2.29,0,.19-.01.35-.03.43-.05.05,0,.09-.05.14-.05.03,0,.04.04.04.09,0,.07-.05.19-.08.47,0,.1-.03.54-.05.66,0,.05-.03.11-.07.11-.06,0-.08-.05-.08-.13,0-.07-.01-.24-.06-.36-.07-.16-.17-.28-.71-.34-.17-.02-1.26-.03-1.37-.03-.04,0-.06.03-.06.1v2.76c0,.07,0,.1.06.1.13,0,1.36,0,1.59-.02.24-.02.38-.04.47-.14.07-.08.11-.13.15-.13.03,0,.05.02.05.08s-.05.23-.08.56c-.02.2-.04.57-.04.64,0,.08,0,.19-.07.19-.05,0-.07-.04-.07-.09,0-.1,0-.2-.04-.33-.04-.14-.13-.31-.52-.35-.27-.03-1.26-.05-1.43-.05-.05,0-.07.03-.07.07v.88c0,.34,0,1.5,0,1.71.03.69.18.82,1.16.82.26,0,.7,0,.96-.11s.38-.31.45-.72c.02-.11.04-.15.09-.15.06,0,.06.08.06.15,0,.08-.08.76-.13.97-.07.26-.15.26-.54.26-.75,0-1.3-.02-1.69-.03-.39-.02-.63-.03-.78-.03-.02,0-.19,0-.4,0-.2,0-.43.02-.58.02-.11,0-.16-.02-.16-.08,0-.03.02-.06.08-.06.09,0,.21-.02.3-.04.2-.04.25-.26.29-.55.05-.42.05-1.21.05-2.17v-1.76Z"/>
      <path d="m79.62,40.29c0-1.56,0-1.84-.02-2.16-.02-.34-.1-.5-.43-.57-.08-.02-.25-.03-.34-.03-.04,0-.08-.02-.08-.06,0-.06.05-.08.16-.08.45,0,1.06.03,1.15.03s.69-.03.99-.03c.11,0,.16.02.16.08,0,.04-.04.06-.08.06-.07,0-.13.01-.25.03-.27.04-.35.22-.37.57-.02.32-.02.6-.02,2.16v1.4c0,1.44.32,2.06.75,2.47.49.46.94.55,1.51.55.61,0,1.21-.29,1.57-.72.46-.57.58-1.42.58-2.45v-1.25c0-1.56,0-1.84-.02-2.16-.02-.34-.1-.5-.43-.57-.08-.02-.25-.03-.34-.03-.04,0-.08-.02-.08-.06,0-.06.05-.08.16-.08.45,0,1,.03,1.06.03.07,0,.54-.03.84-.03.11,0,.16.02.16.08,0,.04-.04.06-.08.06-.07,0-.13.01-.25.03-.27.06-.35.22-.37.57-.02.32-.02.6-.02,2.16v1.07c0,1.08-.12,2.28-.92,2.99-.72.64-1.47.74-2.06.74-.34,0-1.35-.04-2.06-.71-.49-.47-.87-1.17-.87-2.63v-1.46Z"/>
      <path d="m88.14,43.59c.02.82.12,1.08.39,1.16.19.05.41.06.5.06.05,0,.08.02.08.06,0,.06-.06.08-.18.08-.57,0-.97-.03-1.06-.03s-.51.03-.96.03c-.1,0-.16,0-.16-.08,0-.04.03-.06.08-.06.08,0,.26,0,.41-.06.25-.07.3-.36.3-1.27v-5.73c0-.39.04-.5.12-.5s.25.22.35.32c.15.17,1.64,1.78,3.18,3.43.99,1.06,2.08,2.28,2.4,2.61l-.11-5.08c0-.65-.08-.87-.39-.95-.18-.04-.41-.05-.49-.05-.07,0-.08-.03-.08-.07,0-.06.08-.07.2-.07.45,0,.93.03,1.04.03s.44-.03.85-.03c.11,0,.18,0,.18.07,0,.04-.04.07-.11.07-.05,0-.12,0-.24.03-.33.07-.37.29-.37.89l-.02,5.86c0,.66-.02.71-.09.71-.08,0-.2-.11-.73-.64-.11-.1-1.55-1.57-2.61-2.71-1.16-1.25-2.29-2.51-2.61-2.87l.13,4.79Z"/>
      <path d="m97.63,42.05c0,.96,0,1.75.05,2.17.03.29.09.51.39.55.14.02.36.04.45.04.06,0,.08.03.08.06,0,.05-.05.08-.16.08-.55,0-1.18-.03-1.23-.03s-.68.03-.98.03c-.11,0-.16-.02-.16-.08,0-.03.02-.06.08-.06.09,0,.21-.02.3-.04.2-.04.25-.26.29-.55.05-.42.05-1.21.05-2.17v-1.76c0-1.56,0-1.84-.02-2.16-.02-.34-.12-.51-.34-.56-.11-.03-.24-.04-.31-.04-.04,0-.08-.02-.08-.06,0-.06.05-.08.16-.08.33,0,.96.03,1.01.03s.68-.03.98-.03c.11,0,.16.02.16.08,0,.04-.04.06-.08.06-.07,0-.13.01-.25.03-.27.05-.35.22-.37.57-.02.32-.02.6-.02,2.16v1.76Z"/>
      <path d="m103.27,43.73c.58-1.34,1.92-4.83,2.14-5.55.05-.15.09-.29.09-.38,0-.08-.03-.18-.13-.23-.12-.04-.27-.04-.38-.04-.06,0-.11,0-.11-.06,0-.06.06-.08.22-.08.4,0,.86.03.98.03.06,0,.49-.03.78-.03.11,0,.17.02.17.07s-.04.07-.12.07c-.07,0-.29,0-.48.12-.13.09-.28.26-.55.94-.11.28-.61,1.48-1.12,2.71-.61,1.46-1.06,2.54-1.29,3.03-.28.6-.32.76-.42.76-.12,0-.17-.14-.36-.62l-2.45-6.13c-.22-.56-.37-.67-.72-.77-.15-.04-.32-.04-.38-.04s-.08-.03-.08-.07c0-.06.1-.07.26-.07.48,0,1.05.03,1.17.03.1,0,.55-.03.93-.03.18,0,.27.02.27.07s-.03.07-.1.07c-.11,0-.29.01-.38.05-.11.05-.13.13-.13.2,0,.13.12.44.27.83l1.92,5.12Z"/>
      <path d="m108.53,40.29c0-1.56,0-1.84-.02-2.16-.02-.34-.1-.5-.43-.57-.08-.02-.25-.03-.34-.03-.04,0-.08-.02-.08-.06,0-.06.05-.08.16-.08.23,0,.5,0,.72,0l.41.02c.07,0,2.06,0,2.29,0,.19-.01.35-.03.43-.05.05,0,.09-.05.14-.05.03,0,.04.04.04.09,0,.07-.05.19-.08.47,0,.1-.03.54-.05.66,0,.05-.03.11-.07.11-.06,0-.08-.05-.08-.13,0-.07,0-.24-.06-.36-.07-.16-.17-.28-.71-.34-.17-.02-1.26-.03-1.37-.03-.04,0-.06.03-.06.1v2.76c0,.07,0,.1.06.1.13,0,1.36,0,1.59-.02.24-.02.38-.04.47-.14.07-.08.11-.13.15-.13.03,0,.05.02.05.08s-.05.23-.08.56c-.02.2-.04.57-.04.64,0,.08,0,.19-.07.19-.05,0-.07-.04-.07-.09,0-.1,0-.2-.04-.33-.04-.14-.13-.31-.52-.35-.27-.03-1.26-.05-1.43-.05-.05,0-.07.03-.07.07v.88c0,.34,0,1.5,0,1.71.03.69.18.82,1.16.82.26,0,.7,0,.96-.11.26-.11.38-.31.45-.72.02-.11.04-.15.09-.15.06,0,.06.08.06.15,0,.08-.08.76-.13.97-.07.26-.15.26-.54.26-.75,0-1.3-.02-1.69-.03-.39-.02-.63-.03-.78-.03-.02,0-.19,0-.4,0-.2,0-.43.02-.58.02-.11,0-.16-.02-.16-.08,0-.03.02-.06.08-.06.09,0,.21-.02.3-.04.2-.04.25-.26.29-.55.05-.42.05-1.21.05-2.17v-1.76Z"/>
      <path d="m114.01,40.29c0-1.56,0-1.84-.02-2.16-.02-.34-.1-.5-.43-.57-.08-.02-.25-.03-.34-.03-.04,0-.08-.02-.08-.06,0-.06.05-.08.16-.08.45,0,1.08.03,1.13.03.11,0,.87-.03,1.18-.03.63,0,1.3.06,1.83.44.25.18.69.67.69,1.36,0,.74-.31,1.48-1.21,2.31.82,1.05,1.5,1.94,2.08,2.56.54.57.97.68,1.22.72.19.03.33.03.39.03.05,0,.09.03.09.06,0,.06-.06.08-.24.08h-.71c-.56,0-.81-.05-1.07-.19-.43-.23-.78-.72-1.35-1.47-.42-.55-.89-1.22-1.09-1.48-.04-.04-.07-.06-.13-.06l-1.23-.02s-.07.03-.07.08v.24c0,.96,0,1.75.05,2.17.03.29.09.51.39.55.14.02.36.04.45.04.06,0,.08.03.08.06,0,.05-.05.08-.16.08-.55,0-1.18-.03-1.23-.03,0,0-.64.03-.94.03-.11,0-.16-.02-.16-.08,0-.03.02-.06.08-.06.09,0,.21-.02.3-.04.2-.04.25-.26.29-.55.05-.42.05-1.21.05-2.17v-1.76Zm.8.87c0,.05.02.09.07.12.15.09.61.16,1.05.16.24,0,.52-.03.75-.19.35-.24.61-.78.61-1.54,0-1.25-.66-2-1.73-2-.3,0-.57.03-.67.06-.05.02-.08.06-.08.12v3.27Z"/>
      <path d="m121.18,44.82c-.14-.07-.15-.11-.15-.38,0-.5.04-.9.05-1.06.01-.11.03-.16.08-.16.06,0,.07.03.07.11,0,.09,0,.23.03.37.15.74.81,1.02,1.48,1.02.96,0,1.43-.69,1.43-1.33,0-.69-.29-1.09-1.15-1.8l-.45-.37c-1.06-.87-1.3-1.49-1.3-2.17,0-1.07.8-1.8,2.07-1.8.39,0,.68.04.93.1.19.04.27.05.35.05s.1.02.1.07-.04.38-.04,1.06c0,.16-.02.23-.07.23-.06,0-.07-.05-.08-.13,0-.12-.07-.39-.13-.5-.06-.11-.33-.53-1.25-.53-.69,0-1.23.43-1.23,1.16,0,.57.26.93,1.22,1.68l.28.22c1.18.93,1.46,1.55,1.46,2.35,0,.41-.16,1.17-.85,1.66-.43.3-.97.42-1.51.42-.47,0-.93-.07-1.34-.27Z"/>
      <path d="m127.67,42.05c0,.96,0,1.75.05,2.17.03.29.09.51.39.55.14.02.36.04.45.04.06,0,.08.03.08.06,0,.05-.05.08-.16.08-.55,0-1.18-.03-1.23-.03s-.68.03-.98.03c-.11,0-.16-.02-.16-.08,0-.03.02-.06.08-.06.09,0,.21-.02.3-.04.2-.04.25-.26.29-.55.05-.42.05-1.21.05-2.17v-1.76c0-1.56,0-1.84-.02-2.16-.02-.34-.12-.51-.34-.56-.11-.03-.24-.04-.31-.04-.04,0-.08-.02-.08-.06,0-.06.05-.08.16-.08.33,0,.96.03,1.01.03s.68-.03.98-.03c.11,0,.16.02.16.08,0,.04-.04.06-.08.06-.07,0-.13.01-.25.03-.27.05-.35.22-.37.57-.02.32-.02.6-.02,2.16v1.76Z"/>
      <path d="m132.95,42.05c0,.96,0,1.75.05,2.17.03.29.09.51.39.55.14.02.36.04.45.04.06,0,.08.03.08.06,0,.05-.05.08-.16.08-.55,0-1.18-.03-1.23-.03s-.68.03-.98.03c-.11,0-.16-.02-.16-.08,0-.03.02-.06.08-.06.09,0,.21-.02.3-.04.2-.04.25-.26.29-.55.05-.42.05-1.21.05-2.17v-4.23l-1.48.02c-.62,0-.86.08-1.02.32-.11.17-.14.24-.17.31-.03.08-.06.1-.1.1-.03,0-.05-.03-.05-.09,0-.1.2-.96.22-1.04.02-.06.06-.19.1-.19.07,0,.17.1.44.12.29.03.67.05.79.05h3.75c.32,0,.55-.02.71-.05.15-.02.24-.05.28-.05.05,0,.05.06.05.12,0,.3-.03.99-.03,1.1,0,.09-.03.13-.07.13-.05,0-.07-.03-.08-.17v-.11c-.04-.3-.28-.53-1.24-.55l-1.26-.02v4.23Z"/>
      <path d="m139.15,42.36c0-.54-.1-.76-.23-1.05-.07-.16-1.41-2.36-1.76-2.88-.25-.37-.5-.62-.68-.74-.15-.1-.34-.16-.43-.16-.05,0-.1-.02-.1-.07,0-.04.04-.07.13-.07.19,0,.94.03.99.03.07,0,.45-.03.84-.03.11,0,.13.03.13.07s-.06.05-.15.09c-.08.04-.13.1-.13.18,0,.12.05.24.13.39.16.29,1.66,2.87,1.84,3.16.19-.42,1.46-2.61,1.66-2.94.13-.21.17-.38.17-.51,0-.14-.04-.25-.16-.28-.09-.03-.15-.05-.15-.1,0-.04.06-.06.16-.06.26,0,.58.03.66.03.06,0,.78-.03.97-.03.07,0,.13.02.13.06,0,.05-.05.08-.13.08-.11,0-.3.04-.46.14-.2.12-.31.24-.53.51-.33.4-1.73,2.75-1.91,3.18-.15.36-.15.67-.15,1v.86c0,.16,0,.58.03,1,.02.29.11.51.41.55.14.02.36.04.45.04.06,0,.08.03.08.06,0,.05-.05.08-.16.08-.55,0-1.18-.03-1.23-.03s-.68.03-.98.03c-.11,0-.16-.02-.16-.08,0-.03.02-.06.08-.06.09,0,.21-.02.3-.04.2-.04.29-.26.31-.55.03-.42.03-.84.03-1v-.86Z"/>
      <path d="m149.83,37.25c2.25,0,3.93,1.42,3.93,3.75s-1.58,4.09-3.99,4.09c-2.74,0-3.88-2.13-3.88-3.93,0-1.62,1.18-3.91,3.94-3.91Zm.21,7.46c.9,0,2.76-.52,2.76-3.43,0-2.4-1.46-3.69-3.04-3.69-1.67,0-2.92,1.1-2.92,3.29,0,2.33,1.4,3.83,3.2,3.83Z"/>
      <path d="m155.5,40.29c0-1.56,0-1.84-.02-2.16-.02-.34-.1-.5-.43-.57-.08-.02-.25-.03-.34-.03-.04,0-.08-.02-.08-.06,0-.06.05-.08.16-.08.23,0,.5,0,.72,0l.41.02c.2,0,2.23,0,2.46,0,.19-.01.35-.01.44-.04.06-.02.1-.06.14-.06s.06.04.06.09c0,.07-.05.19-.08.47,0,.1-.03.54-.05.66,0,.05-.03.11-.08.11s-.07-.05-.07-.12c0-.08-.03-.25-.09-.38-.06-.13-.29-.31-.68-.32l-1.54-.03c-.06,0-.09.03-.09.11v2.76c0,.06.01.09.07.09h1.28c.17,0,.31,0,.45-.02.24-.02.37-.05.46-.18.04-.05.07-.1.11-.1s.05.03.05.08c0,.06-.05.23-.08.56-.02.2-.04.6-.04.67,0,.09,0,.19-.07.19-.05,0-.07-.04-.07-.09,0-.1-.02-.24-.06-.36-.05-.14-.21-.32-.52-.36-.25-.03-1.34-.03-1.51-.03-.05,0-.07.02-.07.09v.85c0,.96,0,1.75.05,2.17.03.29.09.51.39.55.14.02.36.04.45.04.06,0,.08.03.08.06,0,.05-.05.08-.16.08-.55,0-1.18-.03-1.23-.03s-.68.03-.98.03c-.11,0-.16-.02-.16-.08,0-.03.02-.06.08-.06.09,0,.21-.02.3-.04.2-.04.25-.26.29-.55.05-.42.05-1.21.05-2.17v-1.76Z"/>
      <path d="m163.29,40.29c0-1.56,0-1.84-.02-2.16-.02-.34-.1-.5-.43-.57-.08-.02-.25-.03-.34-.03-.04,0-.08-.02-.08-.06,0-.06.05-.08.16-.08.45,0,1.06.03,1.15.03s.69-.03.99-.03c.11,0,.16.02.16.08,0,.04-.04.06-.08.06-.07,0-.13.01-.25.03-.27.04-.35.22-.37.57-.02.32-.02.6-.02,2.16v1.4c0,1.44.32,2.06.75,2.47.49.46.94.55,1.51.55.61,0,1.21-.29,1.57-.72.46-.57.58-1.42.58-2.45v-1.25c0-1.56,0-1.84-.02-2.16-.02-.34-.1-.5-.43-.57-.08-.02-.25-.03-.34-.03-.04,0-.08-.02-.08-.06,0-.06.05-.08.16-.08.45,0,1,.03,1.06.03.07,0,.54-.03.84-.03.11,0,.16.02.16.08,0,.04-.04.06-.08.06-.07,0-.13.01-.25.03-.27.06-.35.22-.37.57-.02.32-.02.6-.02,2.16v1.07c0,1.08-.12,2.28-.92,2.99-.72.64-1.47.74-2.06.74-.34,0-1.35-.04-2.06-.71-.49-.47-.87-1.17-.87-2.63v-1.46Z"/>
      <path d="m174.18,42.05c0,.96,0,1.75.05,2.17.03.29.09.51.39.55.14.02.36.04.45.04.06,0,.08.03.08.06,0,.05-.05.08-.16.08-.55,0-1.18-.03-1.23-.03s-.68.03-.98.03c-.11,0-.16-.02-.16-.08,0-.03.02-.06.08-.06.09,0,.21-.02.3-.04.2-.04.25-.26.29-.55.05-.42.05-1.21.05-2.17v-4.23l-1.48.02c-.62,0-.86.08-1.02.32-.11.17-.14.24-.17.31-.03.08-.06.1-.1.1-.03,0-.05-.03-.05-.09,0-.1.2-.96.22-1.04.02-.06.06-.19.1-.19.07,0,.17.1.44.12.29.03.67.05.79.05h3.75c.32,0,.55-.02.71-.05.15-.02.24-.05.28-.05.05,0,.05.06.05.12,0,.3-.03.99-.03,1.1,0,.09-.03.13-.07.13-.05,0-.07-.03-.08-.17v-.11c-.04-.3-.28-.53-1.24-.55l-1.26-.02v4.23Z"/>
      <path d="m179.86,37.64c.12-.33.16-.39.22-.39s.1.05.22.36c.15.38,1.72,4.51,2.33,6.03.36.89.65,1.05.86,1.11.15.05.3.06.4.06.06,0,.1,0,.1.06,0,.06-.09.08-.2.08-.15,0-.88,0-1.57-.02-.19,0-.3,0-.3-.07,0-.04.03-.06.07-.07.06-.02.12-.11.06-.27l-.93-2.46s-.04-.06-.09-.06h-2.15s-.08.03-.1.08l-.6,1.77c-.09.25-.14.49-.14.67,0,.2.21.29.38.29h.1c.07,0,.1.02.1.06,0,.06-.06.08-.15.08-.24,0-.67-.03-.78-.03s-.66.03-1.13.03c-.13,0-.19-.02-.19-.08,0-.04.04-.06.09-.06.07,0,.21,0,.29-.02.46-.06.66-.44.84-.94l2.27-6.21Zm1.04,4s.05-.03.04-.07l-.95-2.7c-.05-.15-.1-.15-.15,0l-.88,2.7s0,.07.03.07h1.91Z"/>
      <path d="m191.43,42.05c0,.96,0,1.75.05,2.17.03.29.09.51.39.55.14.02.36.04.45.04.06,0,.08.03.08.06,0,.05-.05.08-.16.08-.55,0-1.18-.03-1.23-.03s-.68.03-.98.03c-.11,0-.16-.02-.16-.08,0-.03.02-.06.08-.06.09,0,.21-.02.3-.04.2-.04.25-.26.29-.55.05-.42.05-1.21.05-2.17v-1.05s-.03-.06-.06-.06h-4.24s-.06,0-.06.06v1.05c0,.96,0,1.75.05,2.17.03.29.09.51.39.55.14.02.36.04.45.04.06,0,.08.03.08.06,0,.05-.05.08-.16.08-.55,0-1.18-.03-1.23-.03s-.68.03-.98.03c-.11,0-.16-.02-.16-.08,0-.03.02-.06.08-.06.09,0,.21-.02.3-.04.2-.04.25-.26.29-.55.05-.42.05-1.21.05-2.17v-1.76c0-1.56,0-1.84-.02-2.16-.02-.34-.1-.5-.43-.57-.08-.02-.25-.03-.34-.03-.04,0-.08-.02-.08-.06,0-.06.05-.08.16-.08.45,0,1.08.03,1.13.03s.68-.03.98-.03c.11,0,.16.02.16.08,0,.04-.04.06-.08.06-.07,0-.13.01-.25.03-.27.05-.35.22-.37.57-.02.32-.02.6-.02,2.16v.21s.03.06.06.06h4.24s.06,0,.06-.06v-.21c0-1.56,0-1.84-.02-2.16-.02-.34-.1-.5-.43-.57-.08-.02-.25-.03-.34-.03-.04,0-.08-.02-.08-.06,0-.06.05-.08.16-.08.45,0,1.08.03,1.13.03s.68-.03.98-.03c.11,0,.16.02.16.08,0,.04-.04.06-.08.06-.07,0-.13.01-.25.03-.27.05-.35.22-.37.57-.02.32-.02.6-.02,2.16v1.76Z"/>
    </g>
    <rect class="cls-2" x="52.22" y="33.17" width="269.62" height="1"/>
  </g>
  <g id="Standard">
    <g>
      <path d="m54.31,18.44h2.42v4.77h.03c.24-.42.5-.8.75-1.18l2.43-3.59h3.01l-3.57,4.59,3.75,6.19h-2.83l-2.66-4.66-.91,1.14v3.52h-2.42v-10.79Z"/>
      <path d="m66.57,26.45l-.75,2.77h-2.53l3.3-10.79h3.19l3.36,10.79h-2.62l-.83-2.77h-3.11Zm2.74-1.82l-.67-2.29c-.18-.64-.37-1.46-.53-2.08h-.05c-.14.64-.32,1.46-.48,2.08l-.66,2.29h2.39Z"/>
      <path d="m76.35,18.44v4.16h4.02v-4.16h2.43v10.79h-2.43v-4.5h-4.02v4.5h-2.43v-10.79h2.43Z"/>
      <path d="m84.46,18.44h2.43v8.74h4.29v2.05h-6.72v-10.79Z"/>
      <path d="m98.35,24.66h-3.97v2.56h4.43v2h-6.87v-10.79h6.64v2h-4.21v2.24h3.97v1.98Z"/>
      <path d="m100.07,18.6c.78-.14,1.94-.24,3.25-.24,1.6,0,2.72.24,3.49.86.66.51,1.01,1.26,1.01,2.26,0,1.36-.98,2.31-1.9,2.64v.05c.75.3,1.17,1.01,1.44,2,.34,1.23.66,2.64.86,3.06h-2.5c-.16-.32-.43-1.18-.74-2.51-.3-1.36-.77-1.71-1.78-1.73h-.72v4.24h-2.42v-10.63Zm2.42,4.63h.96c1.22,0,1.94-.61,1.94-1.55s-.67-1.49-1.79-1.49c-.59,0-.93.03-1.1.08v2.96Z"/>
      <path d="m111.21,20.48h-2.91v-2.05h8.29v2.05h-2.94v8.74h-2.43v-8.74Z"/>
      <path d="m120.24,26.71c.64.34,1.66.67,2.71.67,1.12,0,1.71-.46,1.71-1.17s-.51-1.06-1.81-1.5c-1.79-.64-2.98-1.63-2.98-3.2,0-1.84,1.55-3.23,4.08-3.23,1.23,0,2.11.24,2.75.54l-.54,1.95c-.42-.21-1.2-.51-2.24-.51s-1.57.5-1.57,1.04c0,.69.59.99,2,1.52,1.9.7,2.79,1.7,2.79,3.22,0,1.81-1.38,3.35-4.34,3.35-1.23,0-2.45-.34-3.06-.67l.5-2Z"/>
      <path d="m136.1,28.92c-.43.21-1.46.46-2.75.46-3.73,0-5.65-2.34-5.65-5.41,0-3.67,2.62-5.7,5.89-5.7,1.26,0,2.23.26,2.66.46l-.51,1.94c-.48-.21-1.17-.4-2.05-.4-1.92,0-3.43,1.17-3.43,3.57,0,2.15,1.28,3.51,3.44,3.51.75,0,1.55-.14,2.05-.35l.35,1.92Z"/>
      <path d="m139.51,18.44v4.16h4.02v-4.16h2.43v10.79h-2.43v-4.5h-4.02v4.5h-2.43v-10.79h2.43Z"/>
      <path d="m152.18,29.4c-3.19,0-5.07-2.42-5.07-5.49,0-3.23,2.08-5.65,5.25-5.65s5.12,2.48,5.12,5.46c0,3.55-2.13,5.68-5.28,5.68h-.02Zm.13-1.94c1.65,0,2.59-1.55,2.59-3.67,0-1.94-.91-3.6-2.59-3.6s-2.62,1.63-2.62,3.65.98,3.62,2.61,3.62h.02Z"/>
      <path d="m163.15,29.4c-3.19,0-5.07-2.42-5.07-5.49,0-3.23,2.08-5.65,5.25-5.65s5.12,2.48,5.12,5.46c0,3.55-2.13,5.68-5.28,5.68h-.02Zm.13-1.94c1.65,0,2.59-1.55,2.59-3.67,0-1.94-.91-3.6-2.59-3.6s-2.62,1.63-2.62,3.65.98,3.62,2.61,3.62h.02Z"/>
      <path d="m169.58,18.44h2.43v8.74h4.29v2.05h-6.72v-10.79Z"/>
      <path d="m184.59,29.4c-3.19,0-5.07-2.42-5.07-5.49,0-3.23,2.08-5.65,5.25-5.65s5.12,2.48,5.12,5.46c0,3.55-2.13,5.68-5.28,5.68h-.02Zm.13-1.94c1.65,0,2.59-1.55,2.59-3.67,0-1.94-.91-3.6-2.59-3.6s-2.62,1.63-2.62,3.65.98,3.62,2.61,3.62h.02Z"/>
      <path d="m191.02,18.44h6.58v2h-4.15v2.46h3.87v1.98h-3.87v4.34h-2.43v-10.79Z"/>
      <path d="m209.62,28.92c-.43.21-1.46.46-2.75.46-3.73,0-5.65-2.34-5.65-5.41,0-3.67,2.62-5.7,5.89-5.7,1.26,0,2.22.26,2.66.46l-.51,1.94c-.48-.21-1.17-.4-2.05-.4-1.92,0-3.42,1.17-3.42,3.57,0,2.15,1.28,3.51,3.44,3.51.75,0,1.55-.14,2.05-.35l.35,1.92Z"/>
      <path d="m214.93,29.4c-3.19,0-5.07-2.42-5.07-5.49,0-3.23,2.08-5.65,5.25-5.65s5.12,2.48,5.12,5.46c0,3.55-2.13,5.68-5.28,5.68h-.02Zm.13-1.94c1.65,0,2.59-1.55,2.59-3.67,0-1.94-.91-3.6-2.59-3.6s-2.62,1.63-2.62,3.65.98,3.62,2.61,3.62h.02Z"/>
      <path d="m230.4,25.09c-.05-1.3-.1-2.85-.1-4.43h-.03c-.35,1.38-.8,2.91-1.22,4.18l-1.31,4.21h-1.9l-1.15-4.18c-.35-1.26-.71-2.79-.98-4.21h-.03c-.05,1.46-.11,3.12-.18,4.47l-.21,4.1h-2.26l.69-10.79h3.25l1.06,3.6c.35,1.25.67,2.59.91,3.86h.06c.29-1.25.66-2.67,1.02-3.87l1.14-3.59h3.2l.58,10.79h-2.37l-.18-4.13Z"/>
      <path d="m234.36,18.58c.75-.13,1.81-.22,3.3-.22s2.58.29,3.3.88c.7.53,1.15,1.42,1.15,2.48s-.34,1.97-.99,2.56c-.83.77-2.07,1.14-3.51,1.14-.32,0-.61-.02-.83-.06v3.87h-2.42v-10.64Zm2.42,4.9c.21.05.45.06.82.06,1.3,0,2.1-.66,2.1-1.74,0-.99-.69-1.58-1.92-1.58-.48,0-.82.03-.99.08v3.19Z"/>
      <path d="m245.36,18.44v6.19c0,1.87.72,2.82,1.95,2.82s1.98-.9,1.98-2.82v-6.19h2.43v6.05c0,3.33-1.68,4.91-4.5,4.91s-4.31-1.52-4.31-4.95v-6.02h2.43Z"/>
      <path d="m255.34,20.48h-2.91v-2.05h8.29v2.05h-2.95v8.74h-2.43v-8.74Z"/>
      <path d="m263.84,18.44v10.79h-2.43v-10.79h2.43Z"/>
      <path d="m265.46,29.22v-10.79h2.85l2.24,3.95c.64,1.14,1.26,2.48,1.76,3.7h.03c-.14-1.42-.19-2.88-.19-4.51v-3.14h2.24v10.79h-2.56l-2.3-4.16c-.64-1.17-1.36-2.55-1.87-3.81h-.06c.08,1.44.11,2.96.11,4.72v3.25h-2.24Z"/>
      <path d="m285.01,28.73c-.75.26-2.18.61-3.6.61-1.97,0-3.39-.5-4.39-1.44-.98-.94-1.52-2.35-1.52-3.94.02-3.59,2.62-5.63,6.16-5.63,1.39,0,2.46.27,2.99.51l-.51,1.97c-.59-.27-1.31-.46-2.5-.46-2.03,0-3.58,1.15-3.58,3.49s1.41,3.54,3.41,3.54c.54,0,.99-.06,1.18-.14v-2.27h-1.67v-1.9h4.02v5.68Z"/>
    </g>
  </g>
</svg>