<?xml version="1.0" encoding="UTF-8"?>
<svg id="Layer_1" data-name="Layer 1" xmlns="http://www.w3.org/2000/svg" viewBox="0 0 177.45 44.2">
  <defs>
    <style>
      .cls-1 {
        fill: #be0000;
      }
    </style>
  </defs>
  <polygon class="cls-1" points="0 .2 0 13.38 4.4 13.38 4.4 35.3 13.19 44.03 35.05 44.03 43.84 35.3 43.84 13.38 48.23 13.38 48.23 .2 26.31 .2 26.31 13.38 30.71 13.38 30.71 30.85 17.53 30.85 17.53 13.38 21.92 13.38 21.92 .2 0 .2 0 .2"/>
  <g>
    <path d="M57.41.72l-1.53.04c-.6.02-.84.07-1,.3-.1.15-.15.28-.17.36-.02.08-.05.12-.11.12-.07,0-.09-.05-.09-.16,0-.16.2-1.1.22-1.18.03-.13.06-.2.12-.2.08,0,.18.1.44.12.3.03.69.05,1.03.05h4.08c.66,0,.91-.1.99-.1.07,0,.08.06.08.22,0,.22-.03.93-.03,1.19-.01.1-.03.16-.09.16-.08,0-.1-.05-.11-.21v-.11c-.03-.27-.31-.56-1.22-.58l-1.3-.03v4.22c0,.95,0,1.76.05,2.2.03.29.09.51.4.56.14.02.37.04.52.04.11,0,.16.03.16.08,0,.07-.08.1-.2.1-.68,0-1.33-.03-1.62-.03-.24,0-.88.03-1.3.03-.13,0-.21-.03-.21-.1,0-.05.04-.08.16-.08.15,0,.28-.02.37-.04.21-.04.27-.27.3-.57.05-.43.05-1.25.05-2.19V.72Z"/>
    <path d="M69.14,3.42s.06-.02.06-.07v-.22c0-1.56,0-1.85-.02-2.18-.02-.35-.1-.51-.44-.59-.08-.02-.26-.03-.4-.03-.11,0-.17-.02-.17-.09s.07-.09.22-.09c.56,0,1.2.03,1.48.03.25,0,.9-.03,1.3-.03.14,0,.22.02.22.09s-.06.09-.19.09c-.08,0-.17.01-.3.03-.28.05-.36.23-.38.59-.02.33-.02.62-.02,2.18v1.81c0,.95,0,1.76.05,2.2.03.29.09.51.4.56.14.02.37.04.52.04.11,0,.16.03.16.08,0,.07-.08.1-.21.1-.67,0-1.32-.03-1.61-.03-.24,0-.89.03-1.29.03-.14,0-.22-.03-.22-.1,0-.05.04-.08.16-.08.15,0,.28-.02.37-.04.21-.04.26-.27.3-.57.05-.43.05-1.25.05-2.19v-.91s-.03-.06-.06-.06h-3.93s-.06.01-.06.06v.91c0,.95,0,1.76.05,2.2.03.29.09.51.4.56.14.02.37.04.52.04.11,0,.16.03.16.08,0,.07-.08.1-.21.1-.67,0-1.32-.03-1.6-.03-.24,0-.89.03-1.3.03-.13,0-.21-.03-.21-.1,0-.05.04-.08.17-.08.15,0,.28-.02.37-.04.21-.04.26-.27.3-.57.05-.43.05-1.25.05-2.19v-1.81c0-1.56,0-1.85-.02-2.18-.02-.35-.1-.51-.44-.59-.08-.02-.26-.03-.4-.03-.11,0-.18-.02-.18-.09s.07-.09.22-.09c.56,0,1.2.03,1.48.03.25,0,.89-.03,1.3-.03.14,0,.22.02.22.09s-.06.09-.19.09c-.08,0-.18.01-.3.03-.28.05-.36.23-.38.59-.02.33-.02.62-.02,2.18v.22c0,.05.03.07.06.07h3.93Z"/>
    <path d="M74.38,3.13c0-1.56,0-1.85-.02-2.18-.02-.35-.1-.51-.44-.59-.08-.02-.26-.03-.4-.03-.11,0-.17-.02-.17-.09s.07-.09.23-.09c.55,0,1.19.03,1.48.03.33,0,2.38,0,2.57-.01.2-.02.36-.04.44-.06.05-.01.11-.04.16-.04s.06.04.06.09c0,.07-.05.2-.08.67-.01.1-.03.56-.05.68-.01.05-.03.11-.1.11s-.09-.05-.09-.14c0-.07-.01-.25-.06-.37-.07-.19-.17-.31-.69-.37-.17-.02-1.26-.04-1.46-.04-.05,0-.07.03-.07.1v2.6c0,.07.01.11.07.11.23,0,1.41,0,1.65-.02.25-.02.4-.05.49-.15.07-.08.11-.13.17-.13.04,0,.07.02.07.08s-.05.23-.08.75c-.02.21-.04.62-.04.69,0,.08,0,.2-.09.2-.07,0-.09-.04-.09-.09-.01-.1-.01-.24-.04-.37-.05-.21-.2-.36-.58-.4-.2-.02-1.21-.03-1.46-.03-.05,0-.06.04-.06.1v.81c0,.35-.01,1.3,0,1.6.02.71.19.86,1.23.86.27,0,.7,0,.97-.12.27-.12.39-.34.46-.76.02-.11.04-.15.11-.15.08,0,.08.08.08.19,0,.24-.08.94-.13,1.14-.07.27-.16.27-.56.27-1.55,0-2.24-.06-2.85-.06-.24,0-.89.03-1.3.03-.13,0-.21-.03-.21-.1,0-.05.04-.08.16-.08.15,0,.28-.02.37-.04.21-.04.26-.27.3-.57.05-.43.05-1.25.05-2.19v-1.81Z"/>
    <path d="M56.41,17.96c0-2.68,0-3.16-.03-3.7-.03-.58-.17-.86-.74-.98-.14-.03-.43-.05-.58-.05-.07,0-.14-.03-.14-.1,0-.1.09-.14.27-.14.77,0,1.82.05,1.97.05s1.18-.05,1.7-.05c.19,0,.27.03.27.14,0,.07-.07.1-.14.1-.12,0-.22.02-.43.05-.46.07-.6.38-.63.98-.03.55-.03,1.03-.03,3.7v2.4c0,2.47.55,3.53,1.29,4.24.84.79,1.61.94,2.59.94,1.05,0,2.08-.5,2.69-1.23.79-.98.99-2.44.99-4.2v-2.14c0-2.68,0-3.16-.03-3.7-.03-.58-.17-.86-.74-.98-.14-.03-.43-.05-.58-.05-.07,0-.14-.03-.14-.1,0-.1.09-.14.27-.14.77,0,1.72.05,1.82.05.12,0,.93-.05,1.44-.05.19,0,.27.03.27.14,0,.07-.07.1-.14.1-.12,0-.22,0-.43.05-.46.09-.6.38-.63.98-.03.55-.03,1.03-.03,3.7v1.84c0,1.85-.21,3.91-1.58,5.13-1.24,1.1-2.52,1.27-3.53,1.27-.58,0-2.32-.07-3.53-1.22-.84-.81-1.49-2.01-1.49-4.51v-2.5Z"/>
    <path d="M72.96,23.62c.03,1.41.21,1.85.67,1.99.33.09.7.1.86.1.09,0,.14.03.14.1,0,.1-.1.14-.31.14-.98,0-1.66-.05-1.82-.05s-.87.05-1.65.05c-.17,0-.27-.02-.27-.14,0-.07.05-.1.14-.1.14,0,.45-.02.7-.1.43-.12.51-.62.51-2.18l.02-9.83c0-.67.05-.86.19-.86s.43.38.6.55c.26.29,2.81,3.05,5.45,5.88,1.7,1.82,3.57,3.91,4.12,4.48l-.19-8.71c-.02-1.11-.14-1.49-.67-1.63-.31-.07-.7-.09-.84-.09-.12,0-.14-.05-.14-.12,0-.1.14-.12.34-.12.77,0,1.6.05,1.78.05s.75-.05,1.46-.05c.19,0,.31.02.31.12,0,.07-.07.12-.19.12-.09,0-.21,0-.41.05-.57.12-.63.5-.63,1.53l-.03,10.05c0,1.13-.03,1.22-.15,1.22-.14,0-.34-.19-1.25-1.1-.19-.17-2.66-2.69-4.48-4.65-1.99-2.14-3.93-4.31-4.48-4.92l.22,8.22Z"/>
    <path d="M91.04,20.98c0,1.65,0,3,.09,3.72.05.5.15.87.67.94.24.03.62.07.77.07.1,0,.14.05.14.1,0,.09-.09.14-.27.14-.94,0-2.02-.05-2.11-.05s-1.17.05-1.68.05c-.19,0-.27-.03-.27-.14,0-.05.03-.1.14-.1.15,0,.36-.03.51-.07.34-.07.43-.45.5-.94.09-.72.09-2.08.09-3.72v-3.02c0-2.68,0-3.16-.03-3.7-.03-.58-.21-.87-.58-.96-.19-.05-.41-.07-.53-.07-.07,0-.14-.03-.14-.1,0-.1.09-.14.27-.14.57,0,1.65.05,1.73.05s1.17-.05,1.68-.05c.19,0,.27.03.27.14,0,.07-.07.1-.14.1-.12,0-.22.02-.43.05-.46.09-.6.38-.63.98-.03.55-.03,1.03-.03,3.7v3.02Z"/>
    <path d="M101.72,23.86c1-2.3,3.29-8.28,3.67-9.52.09-.26.15-.5.15-.65,0-.14-.05-.31-.22-.39-.21-.07-.46-.07-.65-.07-.1,0-.19-.02-.19-.1,0-.1.1-.14.38-.14.69,0,1.48.05,1.68.05.1,0,.84-.05,1.34-.05.19,0,.29.03.29.12s-.07.12-.21.12c-.12,0-.5,0-.82.21-.22.15-.48.45-.94,1.61-.19.48-1.05,2.54-1.92,4.65-1.05,2.5-1.82,4.36-2.21,5.2-.48,1.03-.55,1.3-.72,1.3-.21,0-.29-.24-.62-1.06l-4.2-10.51c-.38-.96-.63-1.15-1.24-1.32-.26-.07-.55-.07-.65-.07s-.14-.05-.14-.12c0-.1.17-.12.45-.12.82,0,1.8.05,2.01.05.17,0,.94-.05,1.59-.05.31,0,.46.03.46.12s-.05.12-.17.12c-.19,0-.5.02-.65.09-.19.09-.22.22-.22.34,0,.22.21.75.46,1.42l3.29,8.78Z"/>
    <path d="M111.58,17.96c0-2.68,0-3.16-.03-3.7-.03-.58-.17-.86-.74-.98-.14-.03-.43-.05-.58-.05-.07,0-.14-.03-.14-.1,0-.1.09-.14.27-.14.77,0,1.85.05,1.94.05.12,0,3.53,0,3.93-.02.33-.02.6-.05.74-.09.09-.02.15-.09.24-.09.05,0,.07.07.07.15,0,.12-.09.33-.14.81-.02.17-.05.93-.09,1.13-.02.09-.05.19-.12.19-.1,0-.14-.09-.14-.22,0-.12-.02-.41-.1-.62-.12-.27-.29-.48-1.22-.58-.29-.03-2.16-.05-2.35-.05-.07,0-.1.05-.1.17v4.73c0,.12.02.17.1.17.22,0,2.33,0,2.73-.03.41-.03.65-.07.81-.24.12-.14.19-.22.26-.22.05,0,.09.03.09.14s-.09.39-.14.96c-.03.34-.07.98-.07,1.1,0,.14,0,.33-.12.33-.08,0-.12-.07-.12-.15,0-.17,0-.34-.07-.57-.07-.24-.22-.53-.89-.6-.46-.05-2.16-.09-2.45-.09-.08,0-.12.05-.12.12v1.51c0,.58-.02,2.57,0,2.93.05,1.18.31,1.41,1.99,1.41.45,0,1.2,0,1.65-.19.45-.19.65-.53.77-1.23.03-.19.07-.26.15-.26.1,0,.1.14.1.26,0,.14-.14,1.3-.22,1.66-.12.45-.26.45-.93.45-2.59,0-3.74-.1-4.24-.1-.03,0-.33.02-.69.02-.34.02-.74.03-.99.03-.19,0-.28-.03-.28-.14,0-.05.04-.1.14-.1.15,0,.36-.03.51-.07.34-.07.43-.45.5-.94.09-.72.09-2.08.09-3.72v-3.02Z"/>
    <path d="M122.9,17.96c0-2.68,0-3.16-.03-3.7-.04-.58-.17-.86-.74-.98-.14-.03-.43-.05-.58-.05-.07,0-.14-.03-.14-.1,0-.1.08-.14.27-.14.77,0,1.85.05,1.94.05.19,0,1.49-.05,2.02-.05,1.08,0,2.23.1,3.14.75.43.31,1.18,1.15,1.18,2.33,0,1.27-.53,2.54-2.08,3.96,1.41,1.8,2.57,3.33,3.57,4.39.93.98,1.66,1.17,2.09,1.23.33.05.57.05.67.05.08,0,.15.05.15.1,0,.1-.1.14-.41.14h-1.22c-.96,0-1.39-.09-1.83-.33-.74-.39-1.34-1.23-2.32-2.52-.72-.94-1.53-2.09-1.87-2.54-.07-.07-.12-.1-.22-.1l-2.11-.03c-.09,0-.12.05-.12.14v.41c0,1.65,0,3,.09,3.72.05.5.15.87.67.94.24.03.62.07.77.07.1,0,.14.05.14.1,0,.09-.08.14-.27.14-.94,0-2.02-.05-2.11-.05-.02,0-1.1.05-1.61.05-.19,0-.27-.03-.27-.14,0-.05.03-.1.14-.1.15,0,.36-.03.51-.07.34-.07.43-.45.5-.94.09-.72.09-2.08.09-3.72v-3.02ZM124.28,19.45c0,.09.03.15.12.21.26.15,1.05.27,1.8.27.41,0,.89-.05,1.29-.33.6-.41,1.05-1.34,1.05-2.64,0-2.14-1.13-3.43-2.97-3.43-.51,0-.98.05-1.15.1-.09.03-.14.1-.14.21v5.61Z"/>
    <path d="M135.43,25.73c-.24-.12-.26-.19-.26-.65,0-.86.07-1.54.09-1.82.02-.19.05-.27.14-.27.1,0,.12.05.12.19,0,.15,0,.39.05.63.26,1.27,1.39,1.75,2.54,1.75,1.65,0,2.45-1.18,2.45-2.28,0-1.18-.5-1.87-1.97-3.09l-.77-.63c-1.82-1.49-2.23-2.56-2.23-3.72,0-1.84,1.37-3.09,3.55-3.09.67,0,1.17.07,1.59.17.33.07.46.09.6.09s.17.03.17.12-.07.65-.07,1.82c0,.27-.03.39-.12.39-.1,0-.12-.09-.14-.22-.02-.21-.12-.67-.22-.86-.1-.19-.57-.91-2.14-.91-1.18,0-2.11.74-2.11,1.99,0,.98.48,1.56,2.09,2.88l.48.38c2.02,1.6,2.5,2.66,2.5,4.03,0,.7-.27,2.01-1.46,2.85-.74.51-1.66.72-2.59.72-.81,0-1.59-.12-2.3-.46Z"/>
    <path d="M148.6,20.98c0,1.65,0,3,.09,3.72.05.5.15.87.67.94.24.03.62.07.77.07.1,0,.14.05.14.1,0,.09-.09.14-.27.14-.94,0-2.02-.05-2.11-.05s-1.17.05-1.68.05c-.19,0-.27-.03-.27-.14,0-.05.03-.1.14-.1.15,0,.36-.03.51-.07.34-.07.43-.45.5-.94.09-.72.09-2.08.09-3.72v-3.02c0-2.68,0-3.16-.03-3.7-.03-.58-.21-.87-.58-.96-.19-.05-.41-.07-.53-.07-.07,0-.14-.03-.14-.1,0-.1.09-.14.27-.14.57,0,1.65.05,1.73.05s1.17-.05,1.68-.05c.19,0,.27.03.27.14,0,.07-.07.1-.14.1-.12,0-.22.02-.43.05-.46.09-.6.38-.63.98-.04.55-.04,1.03-.04,3.7v3.02Z"/>
    <path d="M159.22,20.98c0,1.65,0,3,.09,3.72.05.5.15.87.67.94.24.03.62.07.77.07.1,0,.14.05.14.1,0,.09-.09.14-.27.14-.94,0-2.02-.05-2.11-.05s-1.17.05-1.68.05c-.19,0-.27-.03-.27-.14,0-.05.03-.1.14-.1.15,0,.36-.03.51-.07.34-.07.43-.45.5-.94.09-.72.09-2.08.09-3.72v-7.26l-2.54.03c-1.06.02-1.47.14-1.75.55-.19.29-.24.41-.29.53-.05.14-.1.17-.17.17-.05,0-.09-.05-.09-.15,0-.17.34-1.65.38-1.78.03-.1.1-.33.17-.33.12,0,.29.17.75.21.5.05,1.15.09,1.35.09h6.43c.55,0,.94-.05,1.22-.09.26-.05.41-.09.48-.09.09,0,.09.1.09.21,0,.51-.05,1.7-.05,1.89,0,.15-.05.22-.12.22-.08,0-.12-.05-.14-.29l-.02-.19c-.07-.51-.46-.91-2.11-.94l-2.16-.03v7.26Z"/>
    <path d="M170.55,21.51c0-.93-.17-1.3-.39-1.8-.12-.27-2.42-4.05-3.02-4.94-.43-.63-.86-1.06-1.17-1.27-.26-.17-.58-.27-.74-.27-.09,0-.17-.03-.17-.12,0-.07.07-.12.22-.12.33,0,1.61.05,1.7.05.12,0,.77-.05,1.44-.05.19,0,.22.05.22.12s-.1.09-.26.15c-.14.07-.22.17-.22.31,0,.21.09.41.22.67.27.5,2.85,4.92,3.16,5.42.33-.72,2.5-4.48,2.85-5.04.22-.36.29-.65.29-.87,0-.24-.07-.43-.28-.48-.15-.05-.26-.09-.26-.17,0-.07.1-.1.27-.1.45,0,1,.05,1.13.05.1,0,1.34-.05,1.66-.05.12,0,.22.03.22.1,0,.09-.09.14-.22.14-.19,0-.51.07-.79.24-.34.21-.53.41-.91.87-.57.69-2.97,4.72-3.28,5.45-.26.62-.26,1.15-.26,1.72v1.47c0,.27,0,1,.05,1.72.03.5.19.87.7.94.24.03.62.07.77.07.1,0,.14.05.14.1,0,.09-.09.14-.27.14-.94,0-2.02-.05-2.11-.05s-1.17.05-1.68.05c-.19,0-.27-.03-.27-.14,0-.05.03-.1.14-.1.15,0,.36-.03.51-.07.34-.07.5-.45.53-.94.05-.72.05-1.44.05-1.72v-1.47Z"/>
    <path d="M62.21,30.76c3.86,0,6.74,2.44,6.74,6.43s-2.71,7.02-6.84,7.02c-4.7,0-6.65-3.65-6.65-6.74,0-2.78,2.02-6.71,6.76-6.71ZM62.57,43.55c1.54,0,4.73-.89,4.73-5.88,0-4.12-2.5-6.33-5.21-6.33-2.86,0-5.01,1.89-5.01,5.64,0,4,2.4,6.57,5.49,6.57Z"/>
    <path d="M73.44,35.97c0-2.68,0-3.16-.03-3.7-.03-.58-.17-.86-.74-.98-.14-.03-.43-.05-.58-.05-.07,0-.14-.03-.14-.1,0-.1.09-.14.27-.14.77,0,1.85.05,1.94.05.34,0,3.82,0,4.22-.02.33-.02.6-.02.75-.07.1-.03.17-.1.24-.1s.1.07.1.15c0,.12-.09.33-.14.81-.02.17-.05.93-.09,1.13-.02.09-.05.19-.14.19s-.12-.09-.12-.21c0-.14-.05-.43-.15-.65-.1-.22-.5-.53-1.17-.55l-2.64-.05c-.1,0-.15.05-.15.19v4.73c0,.1.02.15.12.15l2.2-.02c.29,0,.53,0,.77-.02.41-.03.63-.09.79-.31.07-.09.12-.17.19-.17s.09.05.09.14c0,.1-.09.39-.14.96-.03.34-.07,1.03-.07,1.15,0,.15,0,.33-.12.33-.09,0-.12-.07-.12-.15-.02-.17-.03-.41-.1-.62-.09-.24-.36-.55-.89-.62-.43-.05-2.3-.05-2.59-.05-.09,0-.12.03-.12.15v1.46c0,1.65,0,3,.09,3.72.05.5.15.87.67.94.24.03.62.07.77.07.1,0,.14.05.14.1,0,.09-.09.14-.27.14-.94,0-2.02-.05-2.11-.05s-1.17.05-1.68.05c-.19,0-.27-.03-.27-.14,0-.05.03-.1.14-.1.15,0,.36-.03.51-.07.34-.07.43-.45.5-.94.09-.72.09-2.08.09-3.72v-3.02Z"/>
    <path d="M89.89,35.97c0-2.68,0-3.16-.03-3.7-.03-.58-.17-.86-.74-.98-.14-.03-.43-.05-.58-.05-.07,0-.14-.03-.14-.1,0-.1.09-.14.27-.14.77,0,1.82.05,1.97.05s1.18-.05,1.7-.05c.19,0,.27.03.27.14,0,.07-.07.1-.14.1-.12,0-.22.02-.43.05-.46.07-.6.38-.63.98-.03.55-.03,1.03-.03,3.7v2.4c0,2.47.55,3.53,1.29,4.24.84.79,1.61.94,2.59.94,1.05,0,2.08-.5,2.69-1.23.79-.98.99-2.44.99-4.2v-2.14c0-2.68,0-3.16-.03-3.7-.03-.58-.17-.86-.74-.98-.14-.03-.43-.05-.58-.05-.07,0-.14-.03-.14-.1,0-.1.09-.14.27-.14.77,0,1.72.05,1.82.05.12,0,.93-.05,1.44-.05.19,0,.27.03.27.14,0,.07-.07.1-.14.1-.12,0-.22,0-.43.05-.46.09-.6.38-.63.98-.03.55-.03,1.03-.03,3.7v1.84c0,1.85-.21,3.91-1.58,5.13-1.24,1.1-2.52,1.27-3.53,1.27-.58,0-2.32-.07-3.53-1.22-.84-.81-1.49-2.01-1.49-4.51v-2.5Z"/>
    <path d="M109.63,38.99c0,1.65,0,3,.09,3.72.05.5.15.87.67.94.24.03.62.07.77.07.1,0,.14.05.14.1,0,.09-.09.14-.27.14-.94,0-2.02-.05-2.11-.05s-1.17.05-1.68.05c-.19,0-.27-.03-.27-.14,0-.05.03-.1.14-.1.15,0,.36-.03.51-.07.34-.07.43-.45.5-.94.09-.72.09-2.08.09-3.72v-7.26l-2.54.03c-1.06.02-1.47.14-1.75.55-.19.29-.24.41-.29.53-.05.14-.1.17-.17.17-.05,0-.09-.05-.09-.15,0-.17.34-1.65.38-1.78.03-.1.1-.33.17-.33.12,0,.29.17.75.21.5.05,1.15.09,1.35.09h6.43c.55,0,.94-.05,1.22-.09.26-.05.41-.09.48-.09.09,0,.09.1.09.21,0,.51-.05,1.7-.05,1.89,0,.15-.05.22-.12.22-.08,0-.12-.05-.14-.29l-.02-.19c-.07-.51-.46-.91-2.11-.94l-2.16-.03v7.26Z"/>
    <path d="M120.39,31.43c.21-.57.27-.67.38-.67s.17.09.38.62c.26.65,2.95,7.74,4,10.34.62,1.53,1.11,1.8,1.47,1.9.26.09.51.1.69.1.1,0,.17.02.17.1,0,.1-.15.14-.34.14-.26,0-1.51,0-2.69-.03-.33-.02-.51-.02-.51-.12,0-.07.05-.1.12-.12.1-.03.21-.19.1-.46l-1.6-4.22c-.03-.07-.07-.1-.15-.1h-3.69c-.09,0-.14.05-.17.14l-1.03,3.04c-.15.43-.24.84-.24,1.15,0,.34.36.5.65.5h.17c.12,0,.17.03.17.1,0,.1-.1.14-.26.14-.41,0-1.15-.05-1.34-.05s-1.13.05-1.94.05c-.22,0-.33-.03-.33-.14,0-.07.07-.1.15-.1.12,0,.36-.02.5-.03.79-.1,1.13-.75,1.44-1.61l3.89-10.65ZM122.17,38.29c.09,0,.09-.05.07-.12l-1.63-4.63c-.09-.26-.17-.26-.26,0l-1.51,4.63c-.03.09,0,.12.05.12h3.28Z"/>
    <path d="M141.14,38.99c0,1.65,0,3,.09,3.72.05.5.15.87.67.94.24.03.62.07.77.07.1,0,.14.05.14.1,0,.09-.09.14-.27.14-.94,0-2.02-.05-2.11-.05s-1.17.05-1.68.05c-.19,0-.27-.03-.27-.14,0-.05.03-.1.14-.1.15,0,.36-.03.51-.07.34-.07.43-.45.5-.94.09-.72.09-2.08.09-3.72v-1.8c0-.07-.05-.1-.1-.1h-7.27c-.05,0-.1.02-.1.1v1.8c0,1.65,0,3,.09,3.72.05.5.15.87.67.94.24.03.62.07.77.07.1,0,.14.05.14.1,0,.09-.09.14-.27.14-.94,0-2.02-.05-2.11-.05s-1.17.05-1.68.05c-.19,0-.27-.03-.27-.14,0-.05.03-.1.14-.1.15,0,.36-.03.51-.07.34-.07.43-.45.5-.94.09-.72.09-2.08.09-3.72v-3.02c0-2.68,0-3.16-.03-3.7-.03-.58-.17-.86-.74-.98-.14-.03-.43-.05-.58-.05-.07,0-.14-.03-.14-.1,0-.1.09-.14.27-.14.77,0,1.85.05,1.94.05s1.17-.05,1.68-.05c.19,0,.27.03.27.14,0,.07-.07.1-.14.1-.12,0-.22.02-.43.05-.46.09-.6.38-.63.98-.03.55-.03,1.03-.03,3.7v.36c0,.09.05.1.1.1h7.27c.05,0,.1-.02.1-.1v-.36c0-2.68,0-3.16-.03-3.7-.03-.58-.17-.86-.74-.98-.14-.03-.43-.05-.58-.05-.07,0-.14-.03-.14-.1,0-.1.09-.14.27-.14.77,0,1.85.05,1.94.05s1.17-.05,1.68-.05c.19,0,.27.03.27.14,0,.07-.07.1-.14.1-.12,0-.22.02-.43.05-.46.09-.6.38-.63.98-.03.55-.03,1.03-.03,3.7v3.02Z"/>
  </g>
  <path d="M148.38,30.36c1.44,0,2.59,1.17,2.59,2.63s-1.15,2.65-2.6,2.65-2.61-1.16-2.61-2.65,1.17-2.63,2.61-2.63h.01ZM148.37,30.77c-1.16,0-2.11,1-2.11,2.22s.95,2.24,2.12,2.24c1.17.01,2.11-.98,2.11-2.23s-.94-2.24-2.11-2.24h-.01ZM147.88,34.53h-.47v-2.94c.25-.04.48-.07.83-.07.45,0,.74.09.91.22.18.13.27.33.27.61,0,.39-.26.62-.57.71v.02c.26.05.43.28.49.71.07.46.14.63.19.73h-.49c-.07-.09-.14-.36-.2-.75-.07-.37-.26-.51-.63-.51h-.33v1.26ZM147.88,32.91h.34c.39,0,.71-.14.71-.5,0-.26-.19-.52-.71-.52-.15,0-.26.01-.34.02v1Z"/>
</svg>